/* XPM */
static char * font_inc_xpm[] = {
"16 16 4 1",
" 	c None",
".	c #000000",
"+	c #4D4DA6",
"@	c #A6A6A6",
"             .  ",
"             .  ",
"        +   ... ",
"       @+@  . . ",
"       +++ .. ..",
"      @+++@.   .",
"      ++ ++     ",
"     @+  ++@    ",
"     +++++++    ",
"    @+    ++@   ",
"    ++    @++   ",
"   @+     @++@  ",
"  ++++   ++++++ ",
"                ",
"                ",
"                "};
