/* XPM */
static char * color_xpm[] = {
"16 16 22 1",
" 	c None",
".	c #1E00FF",
"+	c #4A32CD",
"@	c #ABA05E",
"#	c #F5F40A",
"$	c #FFFF00",
"%	c #BAB14E",
"&	c #7B6A95",
"*	c #ECEA15",
"=	c #4A00CD",
"-	c #7B0095",
";	c #C63F40",
">	c #FF9500",
",	c #FFCD00",
"'	c #C7003E",
")	c #ED0014",
"!	c #FF0000",
"~	c #FD1301",
"{	c #FF4E00",
"]	c #F90006",
"^	c #FF6300",
"/	c #FF1300",
"                ",
"                ",
"                ",
"    .....       ",
"   ....+@#$$    ",
"   ...+%$$$$$   ",
"   ...&*$$$$$   ",
"   .=-;>,$$$$$  ",
"    ')!~{,$$$   ",
"   ]!!!!!^$$$   ",
"   !!!!!!/$$    ",
"   !!!!!!!      ",
"   !!!!!!!      ",
"    !!!!!       ",
"      !         ",
"                "};
